<?xml version="1.0" encoding="utf-8" ?>
<svg xmlns="http://www.w3.org/2000/svg" xmlns:xlink="http://www.w3.org/1999/xlink" width="300" height="250">
	<clipPath id="cl_3">
		<rect y="1.9073486e-06" width="300" height="25.000002"/>
	</clipPath>
	<g clip-path="url(#cl_3)">
		<path transform="matrix(0.166667 0 0 0.266667 0 -19.5)" d="M110.883 104.206L111.501 104.34C111.504 104.653 111.492 104.588 111.221 104.759C109.459 105.868 108.166 107.257 107.044 109C103.822 114.007 100.352 122.8 98.1757 128.523C95.9802 124.35 93.9986 120.077 91.9209 115.846C91.006 113.971 89.9824 112.136 89.0121 110.289C91.4632 110.216 93.9202 110.265 96.3721 110.282C96.3117 114.242 98.6926 117.6 99.5433 121.395C100.557 118.747 101.489 116.049 102.613 113.446C104.453 109.182 106.44 105.982 110.883 104.206Z"/>
		<path transform="matrix(0.166667 0 0 0.266667 0 -19.5)" d="M158.521 110.199C162.526 110.912 167.148 110.459 171.205 110.375L171.419 110.661C171.548 111.553 171.754 112.497 171.601 113.393L171.283 113.431C171.026 113.052 170.75 112.642 170.414 112.329C169.247 111.239 166.013 111.494 164.527 111.478C164.728 113.099 164.635 114.622 164.634 116.246C164.634 117.182 164.73 117.727 165.395 118.386C167.052 118.845 168.851 117.609 170.287 116.897C170.308 118.086 170.665 120.218 170.121 121.186C169.286 121.115 168.761 120.53 168.105 120.028C167.133 119.927 165.525 119.561 164.667 120.041L164.563 120.556C164.902 122.421 164.697 124.591 164.569 126.478C165.737 126.516 166.919 126.566 168.082 126.417C169.347 126.255 171.253 125.626 171.731 124.281C171.931 123.719 171.927 123.223 172.304 122.733L172.509 122.792C172.929 124.184 172.475 126.381 172.354 127.851Q165.621 127.777 158.888 127.828C159.68 124.298 160.213 113.185 158.521 110.199Z"/>
		<path transform="matrix(0.166667 0 0 0.266667 0 -19.5)" d="M130.378 110.08C131.42 109.846 134.516 109.831 135.475 110.238C136.046 110.479 136.487 110.774 136.703 111.384C136.894 111.922 136.738 112.658 136.512 113.15C135.846 113.18 134.516 111.801 133.899 111.346C133.159 111.365 132.414 111.386 131.678 111.471C130.655 111.59 129.321 111.785 128.645 112.649C128.904 115.657 135.734 117.475 137.656 119.711C138.416 120.596 138.964 121.761 138.843 122.953C138.707 124.288 137.763 125.395 136.762 126.211C134.546 128.02 131.808 128.447 129.042 128.161C128.916 128.141 128.789 128.122 128.663 128.098C127.378 127.85 125.726 127.642 124.966 126.444C124.011 124.939 124.893 122.625 125.284 121.062C125.78 122.58 126.301 123.943 127.106 125.325C128.202 126.044 129.355 126.625 130.682 126.719C131.772 126.796 133.299 126.591 134.127 125.896C134.375 125.351 134.626 124.837 134.484 124.22C134.005 122.137 129.136 120.574 127.442 119.403C126.22 118.557 124.987 117.414 124.742 115.872C124.519 114.462 125.138 112.878 125.976 111.765C127.038 110.353 128.766 110.298 130.378 110.08Z"/>
		<path transform="matrix(0.166667 0 0 0.266667 0 -19.5)" d="M108.352 110.199C110.412 110.509 120.725 110.117 121.408 110.655Q121.487 112.025 121.619 113.39C120.987 112.773 120.371 112.102 119.511 111.824C119.468 111.81 119.424 111.797 119.38 111.784C117.893 111.311 116.017 111.492 114.458 111.503C114.749 113.882 114.6 116.273 114.518 118.661C115.733 118.533 116.986 118.576 118.208 118.561C119.039 117.892 119.805 117.114 120.587 116.387C120.304 117.749 120.734 120.62 120.143 121.576C119.327 121.011 118.275 120.12 117.315 119.87C116.567 119.676 115.306 119.669 114.659 120.05L114.536 120.69C114.601 122.625 114.698 124.557 114.526 126.489C116.096 126.526 117.84 126.708 119.333 126.136C121.474 125.314 122.225 123.036 123.074 121.111C123.043 123.308 122.628 125.584 122.372 127.769C117.923 127.984 113.643 128.083 109.201 127.67C109.419 124.036 110.42 113.07 108.352 110.199Z"/>
		<path transform="matrix(0.166667 0 0 0.266667 0 -19.5)" d="M141.163 110.157C144.572 110.347 148.249 109.742 151.589 110.511C153.265 110.897 155.306 111.758 156.227 113.307C156.868 114.387 156.815 115.586 156.502 116.764C156.106 118.258 154.704 119.428 153.402 120.147C152.334 120.737 150.825 121.309 149.609 120.946C149.091 120.482 149.028 120.37 148.819 119.705C149.277 118.152 150.762 116.554 151.586 115.105C151.117 114.16 150.488 113.3 149.897 112.43C149.128 111.955 148.23 111.598 147.413 111.203C146.981 116.782 147.039 122.178 147.531 127.752C145.591 127.335 143.342 127.656 141.371 127.793C142.305 123.316 142.928 114.37 141.163 110.157Z"/>
		<path transform="matrix(0.166667 0 0 0.266667 0 -19.5)" d="M175.312 110.195C179.298 110.419 184.36 109.517 188.083 111.079C189.203 111.55 190.145 112.262 190.603 113.421C191.227 115.002 190.692 116.267 190.079 117.727C189.228 118.494 188.24 119.138 187.311 119.808C189.96 121.913 191.439 124.989 193.552 127.585C196.744 121.897 199.235 115.959 201.719 109.941C204.209 113.592 205.667 117.693 207.526 121.672C208.54 123.843 209.765 125.908 210.974 127.974C209.376 127.997 207.783 128.041 206.189 127.891C205.422 127.846 204.609 127.88 203.959 127.418C203.153 126.846 203.072 124.789 202.93 123.862C201.097 123.902 199.297 123.954 197.476 123.717C197.308 125.09 196.92 126.424 196.574 127.76C193.632 128.133 189.31 128.489 186.72 126.806C184.292 125.229 183.339 121.982 182.739 119.304C183.604 118.459 184.537 117.539 185.064 116.44C185.432 115.674 185.589 114.859 185.297 114.041C184.697 112.362 182.966 111.746 181.485 111.046C181.622 116.729 181.041 122.449 182.083 128.073C180.092 127.843 177.562 128.372 175.699 127.732C175.503 127.664 176.022 125.682 176.086 125.312C176.653 122.042 176.757 113.122 175.312 110.195ZM200.001 118.103C199.545 119.052 198.721 120.317 198.828 121.387C199.162 121.909 199.21 122.003 199.848 122.128C200.2 122.196 200.587 122.201 200.945 122.224L201.568 122.184C201.908 121.399 201.557 120.335 201.253 119.583C201.08 119.158 200.851 118.427 200.395 118.225C200.188 118.133 200.198 118.145 200.001 118.103ZM180.618 115.688L180.279 117.08L180.203 116.777C180.1 118.989 180.122 121.177 180.178 123.389L180.477 123.526C181.267 122.532 180.936 117.923 180.772 116.597Q180.714 116.139 180.618 115.688Z"/>
		<path transform="matrix(0.166667 0 0 0.266667 0 -19.5)" d="M180.618 115.688Q180.714 116.139 180.772 116.597C180.936 117.923 181.267 122.532 180.477 123.526L180.178 123.389C180.122 121.177 180.1 118.989 180.203 116.777L180.279 117.08L180.618 115.688Z"/>
	</g>
</svg>
